# MagicaVoxel @ Ephtracy

# group
o 

# material
mtllib PlayerBullet.mtl
usemtl palette

# normals
vn -1 0 0
vn 1 0 0
vn 0 0 1
vn 0 0 -1
vn 0 -1 0
vn 0 1 0

# texcoords
vt 0.0449219 0.5
vt 0.0917969 0.5
vt 0.115234 0.5
vt 0.841797 0.5
vt 0.853516 0.5
vt 0.861328 0.5

# verts
v -0.8 0.3 0.1
v -0.8 0.3 -0.1
v -0.8 0.5 0.1
v -0.8 0.5 -0.1
v -0.5 0.2 0.1
v -0.5 0.2 -0.1
v -0.5 0.3 0.2
v -0.5 0.3 0.1
v -0.5 0.3 -0.1
v -0.5 0.3 -0.2
v -0.5 0.5 0.2
v -0.5 0.5 0.1
v -0.5 0.5 -0.1
v -0.5 0.5 -0.2
v -0.5 0.6 0.1
v -0.5 0.6 -0.1
v -0.2 0.1 0.1
v -0.2 0.1 -0.1
v -0.2 0.2 0.2
v -0.2 0.2 0.1
v -0.2 0.2 -0.1
v -0.2 0.2 -0.2
v -0.2 0.3 0.3
v -0.2 0.3 0.2
v -0.2 0.3 0.1
v -0.2 0.3 -0.1
v -0.2 0.3 -0.2
v -0.2 0.3 -0.3
v -0.2 0.5 0.3
v -0.2 0.5 0.2
v -0.2 0.5 0.1
v -0.2 0.5 -0.1
v -0.2 0.5 -0.2
v -0.2 0.5 -0.3
v -0.2 0.6 0.2
v -0.2 0.6 0.1
v -0.2 0.6 -0.1
v -0.2 0.6 -0.2
v -0.2 0.7 0.1
v -0.2 0.7 -0.1
v 0.1 0 0.1
v 0.1 0 -0.1
v 0.1 0.1 0.2
v 0.1 0.1 0.1
v 0.1 0.1 -0.1
v 0.1 0.1 -0.2
v 0.1 0.2 0.3
v 0.1 0.2 0.2
v 0.1 0.2 0.1
v 0.1 0.2 -0.1
v 0.1 0.2 -0.2
v 0.1 0.2 -0.3
v 0.1 0.3 0.4
v 0.1 0.3 0.3
v 0.1 0.3 0.2
v 0.1 0.3 -0.2
v 0.1 0.3 -0.3
v 0.1 0.3 -0.4
v 0.1 0.5 0.4
v 0.1 0.5 0.3
v 0.1 0.5 0.2
v 0.1 0.5 -0.2
v 0.1 0.5 -0.3
v 0.1 0.5 -0.4
v 0.1 0.6 0.3
v 0.1 0.6 0.2
v 0.1 0.6 0.1
v 0.1 0.6 -0.1
v 0.1 0.6 -0.2
v 0.1 0.6 -0.3
v 0.1 0.7 0.2
v 0.1 0.7 0.1
v 0.1 0.7 -0.1
v 0.1 0.7 -0.2
v 0.1 0.8 0.1
v 0.1 0.8 -0.1
v 0.5 0 0.1
v 0.5 0 -0.1
v 0.5 0.1 0.2
v 0.5 0.1 0.1
v 0.5 0.1 -0.1
v 0.5 0.1 -0.2
v 0.5 0.2 0.3
v 0.5 0.2 0.2
v 0.5 0.2 0.1
v 0.5 0.2 -0.1
v 0.5 0.2 -0.2
v 0.5 0.2 -0.3
v 0.5 0.3 0.4
v 0.5 0.3 0.3
v 0.5 0.3 0.2
v 0.5 0.3 -0.2
v 0.5 0.3 -0.3
v 0.5 0.3 -0.4
v 0.5 0.5 0.4
v 0.5 0.5 0.3
v 0.5 0.5 0.2
v 0.5 0.5 -0.2
v 0.5 0.5 -0.3
v 0.5 0.5 -0.4
v 0.5 0.6 0.3
v 0.5 0.6 0.2
v 0.5 0.6 0.1
v 0.5 0.6 -0.1
v 0.5 0.6 -0.2
v 0.5 0.6 -0.3
v 0.5 0.7 0.2
v 0.5 0.7 0.1
v 0.5 0.7 -0.1
v 0.5 0.7 -0.2
v 0.5 0.8 0.1
v 0.5 0.8 -0.1
v 0.6 0.1 0.1
v 0.6 0.1 -0.1
v 0.6 0.2 0.2
v 0.6 0.2 0.1
v 0.6 0.2 -0.1
v 0.6 0.2 -0.2
v 0.6 0.3 0.3
v 0.6 0.3 0.2
v 0.6 0.3 0.1
v 0.6 0.3 -0.1
v 0.6 0.3 -0.2
v 0.6 0.3 -0.3
v 0.6 0.5 0.3
v 0.6 0.5 0.2
v 0.6 0.5 0.1
v 0.6 0.5 -0.1
v 0.6 0.5 -0.2
v 0.6 0.5 -0.3
v 0.6 0.6 0.2
v 0.6 0.6 0.1
v 0.6 0.6 -0.1
v 0.6 0.6 -0.2
v 0.6 0.7 0.1
v 0.6 0.7 -0.1
v 0.7 0.2 0.1
v 0.7 0.2 -0.1
v 0.7 0.3 0.2
v 0.7 0.3 0.1
v 0.7 0.3 -0.1
v 0.7 0.3 -0.2
v 0.7 0.5 0.2
v 0.7 0.5 0.1
v 0.7 0.5 -0.1
v 0.7 0.5 -0.2
v 0.7 0.6 0.1
v 0.7 0.6 -0.1
v 0.8 0.3 0.1
v 0.8 0.3 -0.1
v 0.8 0.5 0.1
v 0.8 0.5 -0.1
v 0.1 0.3 0.4
v 0.1 0.5 0.4
v 0.5 0.3 0.4
v 0.5 0.5 0.4
v -0.2 0.3 0.3
v -0.2 0.5 0.3
v 0.1 0.2 0.3
v 0.1 0.3 0.3
v 0.1 0.5 0.3
v 0.1 0.6 0.3
v 0.5 0.2 0.3
v 0.5 0.3 0.3
v 0.5 0.5 0.3
v 0.5 0.6 0.3
v 0.6 0.3 0.3
v 0.6 0.5 0.3
v -0.5 0.3 0.2
v -0.5 0.5 0.2
v -0.2 0.2 0.2
v -0.2 0.3 0.2
v -0.2 0.5 0.2
v -0.2 0.6 0.2
v 0.1 0.1 0.2
v 0.1 0.2 0.2
v 0.1 0.3 0.2
v 0.1 0.5 0.2
v 0.1 0.6 0.2
v 0.1 0.7 0.2
v 0.5 0.1 0.2
v 0.5 0.2 0.2
v 0.5 0.3 0.2
v 0.5 0.5 0.2
v 0.5 0.6 0.2
v 0.5 0.7 0.2
v 0.6 0.2 0.2
v 0.6 0.3 0.2
v 0.6 0.5 0.2
v 0.6 0.6 0.2
v 0.7 0.3 0.2
v 0.7 0.5 0.2
v -0.8 0.3 0.1
v -0.8 0.5 0.1
v -0.5 0.2 0.1
v -0.5 0.3 0.1
v -0.5 0.5 0.1
v -0.5 0.6 0.1
v -0.2 0.1 0.1
v -0.2 0.2 0.1
v -0.2 0.3 0.1
v -0.2 0.5 0.1
v -0.2 0.6 0.1
v -0.2 0.7 0.1
v 0.1 0 0.1
v 0.1 0.1 0.1
v 0.1 0.2 0.1
v 0.1 0.6 0.1
v 0.1 0.7 0.1
v 0.1 0.8 0.1
v 0.5 0 0.1
v 0.5 0.1 0.1
v 0.5 0.2 0.1
v 0.5 0.6 0.1
v 0.5 0.7 0.1
v 0.5 0.8 0.1
v 0.6 0.1 0.1
v 0.6 0.2 0.1
v 0.6 0.3 0.1
v 0.6 0.5 0.1
v 0.6 0.6 0.1
v 0.6 0.7 0.1
v 0.7 0.2 0.1
v 0.7 0.3 0.1
v 0.7 0.5 0.1
v 0.7 0.6 0.1
v 0.8 0.3 0.1
v 0.8 0.5 0.1
v -0.8 0.3 -0.1
v -0.8 0.5 -0.1
v -0.5 0.2 -0.1
v -0.5 0.3 -0.1
v -0.5 0.5 -0.1
v -0.5 0.6 -0.1
v -0.2 0.1 -0.1
v -0.2 0.2 -0.1
v -0.2 0.3 -0.1
v -0.2 0.5 -0.1
v -0.2 0.6 -0.1
v -0.2 0.7 -0.1
v 0.1 0 -0.1
v 0.1 0.1 -0.1
v 0.1 0.2 -0.1
v 0.1 0.6 -0.1
v 0.1 0.7 -0.1
v 0.1 0.8 -0.1
v 0.5 0 -0.1
v 0.5 0.1 -0.1
v 0.5 0.2 -0.1
v 0.5 0.6 -0.1
v 0.5 0.7 -0.1
v 0.5 0.8 -0.1
v 0.6 0.1 -0.1
v 0.6 0.2 -0.1
v 0.6 0.3 -0.1
v 0.6 0.5 -0.1
v 0.6 0.6 -0.1
v 0.6 0.7 -0.1
v 0.7 0.2 -0.1
v 0.7 0.3 -0.1
v 0.7 0.5 -0.1
v 0.7 0.6 -0.1
v 0.8 0.3 -0.1
v 0.8 0.5 -0.1
v -0.5 0.3 -0.2
v -0.5 0.5 -0.2
v -0.2 0.2 -0.2
v -0.2 0.3 -0.2
v -0.2 0.5 -0.2
v -0.2 0.6 -0.2
v 0.1 0.1 -0.2
v 0.1 0.2 -0.2
v 0.1 0.3 -0.2
v 0.1 0.5 -0.2
v 0.1 0.6 -0.2
v 0.1 0.7 -0.2
v 0.5 0.1 -0.2
v 0.5 0.2 -0.2
v 0.5 0.3 -0.2
v 0.5 0.5 -0.2
v 0.5 0.6 -0.2
v 0.5 0.7 -0.2
v 0.6 0.2 -0.2
v 0.6 0.3 -0.2
v 0.6 0.5 -0.2
v 0.6 0.6 -0.2
v 0.7 0.3 -0.2
v 0.7 0.5 -0.2
v -0.2 0.3 -0.3
v -0.2 0.5 -0.3
v 0.1 0.2 -0.3
v 0.1 0.3 -0.3
v 0.1 0.5 -0.3
v 0.1 0.6 -0.3
v 0.5 0.2 -0.3
v 0.5 0.3 -0.3
v 0.5 0.5 -0.3
v 0.5 0.6 -0.3
v 0.6 0.3 -0.3
v 0.6 0.5 -0.3
v 0.1 0.3 -0.4
v 0.1 0.5 -0.4
v 0.5 0.3 -0.4
v 0.5 0.5 -0.4
v 0.1 0 0.1
v 0.5 0 0.1
v 0.1 0 -0.1
v 0.5 0 -0.1
v 0.1 0.1 0.2
v 0.5 0.1 0.2
v -0.2 0.1 0.1
v 0.1 0.1 0.1
v 0.5 0.1 0.1
v 0.6 0.1 0.1
v -0.2 0.1 -0.1
v 0.1 0.1 -0.1
v 0.5 0.1 -0.1
v 0.6 0.1 -0.1
v 0.1 0.1 -0.2
v 0.5 0.1 -0.2
v 0.1 0.2 0.3
v 0.5 0.2 0.3
v -0.2 0.2 0.2
v 0.1 0.2 0.2
v 0.5 0.2 0.2
v 0.6 0.2 0.2
v -0.5 0.2 0.1
v -0.2 0.2 0.1
v 0.1 0.2 0.1
v 0.5 0.2 0.1
v 0.6 0.2 0.1
v 0.7 0.2 0.1
v -0.5 0.2 -0.1
v -0.2 0.2 -0.1
v 0.1 0.2 -0.1
v 0.5 0.2 -0.1
v 0.6 0.2 -0.1
v 0.7 0.2 -0.1
v -0.2 0.2 -0.2
v 0.1 0.2 -0.2
v 0.5 0.2 -0.2
v 0.6 0.2 -0.2
v 0.1 0.2 -0.3
v 0.5 0.2 -0.3
v 0.1 0.3 0.4
v 0.5 0.3 0.4
v -0.2 0.3 0.3
v 0.1 0.3 0.3
v 0.5 0.3 0.3
v 0.6 0.3 0.3
v -0.5 0.3 0.2
v -0.2 0.3 0.2
v 0.1 0.3 0.2
v 0.5 0.3 0.2
v 0.6 0.3 0.2
v 0.7 0.3 0.2
v -0.8 0.3 0.1
v -0.5 0.3 0.1
v -0.2 0.3 0.1
v 0.6 0.3 0.1
v 0.7 0.3 0.1
v 0.8 0.3 0.1
v -0.8 0.3 -0.1
v -0.5 0.3 -0.1
v -0.2 0.3 -0.1
v 0.6 0.3 -0.1
v 0.7 0.3 -0.1
v 0.8 0.3 -0.1
v -0.5 0.3 -0.2
v -0.2 0.3 -0.2
v 0.1 0.3 -0.2
v 0.5 0.3 -0.2
v 0.6 0.3 -0.2
v 0.7 0.3 -0.2
v -0.2 0.3 -0.3
v 0.1 0.3 -0.3
v 0.5 0.3 -0.3
v 0.6 0.3 -0.3
v 0.1 0.3 -0.4
v 0.5 0.3 -0.4
v 0.1 0.5 0.4
v 0.5 0.5 0.4
v -0.2 0.5 0.3
v 0.1 0.5 0.3
v 0.5 0.5 0.3
v 0.6 0.5 0.3
v -0.5 0.5 0.2
v -0.2 0.5 0.2
v 0.1 0.5 0.2
v 0.5 0.5 0.2
v 0.6 0.5 0.2
v 0.7 0.5 0.2
v -0.8 0.5 0.1
v -0.5 0.5 0.1
v -0.2 0.5 0.1
v 0.6 0.5 0.1
v 0.7 0.5 0.1
v 0.8 0.5 0.1
v -0.8 0.5 -0.1
v -0.5 0.5 -0.1
v -0.2 0.5 -0.1
v 0.6 0.5 -0.1
v 0.7 0.5 -0.1
v 0.8 0.5 -0.1
v -0.5 0.5 -0.2
v -0.2 0.5 -0.2
v 0.1 0.5 -0.2
v 0.5 0.5 -0.2
v 0.6 0.5 -0.2
v 0.7 0.5 -0.2
v -0.2 0.5 -0.3
v 0.1 0.5 -0.3
v 0.5 0.5 -0.3
v 0.6 0.5 -0.3
v 0.1 0.5 -0.4
v 0.5 0.5 -0.4
v 0.1 0.6 0.3
v 0.5 0.6 0.3
v -0.2 0.6 0.2
v 0.1 0.6 0.2
v 0.5 0.6 0.2
v 0.6 0.6 0.2
v -0.5 0.6 0.1
v -0.2 0.6 0.1
v 0.1 0.6 0.1
v 0.5 0.6 0.1
v 0.6 0.6 0.1
v 0.7 0.6 0.1
v -0.5 0.6 -0.1
v -0.2 0.6 -0.1
v 0.1 0.6 -0.1
v 0.5 0.6 -0.1
v 0.6 0.6 -0.1
v 0.7 0.6 -0.1
v -0.2 0.6 -0.2
v 0.1 0.6 -0.2
v 0.5 0.6 -0.2
v 0.6 0.6 -0.2
v 0.1 0.6 -0.3
v 0.5 0.6 -0.3
v 0.1 0.7 0.2
v 0.5 0.7 0.2
v -0.2 0.7 0.1
v 0.1 0.7 0.1
v 0.5 0.7 0.1
v 0.6 0.7 0.1
v -0.2 0.7 -0.1
v 0.1 0.7 -0.1
v 0.5 0.7 -0.1
v 0.6 0.7 -0.1
v 0.1 0.7 -0.2
v 0.5 0.7 -0.2
v 0.1 0.8 0.1
v 0.5 0.8 0.1
v 0.1 0.8 -0.1
v 0.5 0.8 -0.1

# faces
f 3/6/1 2/6/1 1/6/1
f 4/6/1 2/6/1 3/6/1
f 8/5/1 6/5/1 5/5/1
f 9/5/1 6/5/1 8/5/1
f 11/3/1 8/3/1 7/3/1
f 12/3/1 8/3/1 11/3/1
f 13/3/1 10/3/1 9/3/1
f 14/3/1 10/3/1 13/3/1
f 15/5/1 13/5/1 12/5/1
f 16/5/1 13/5/1 15/5/1
f 20/2/1 18/2/1 17/2/1
f 21/2/1 18/2/1 20/2/1
f 24/4/1 20/4/1 19/4/1
f 25/4/1 20/4/1 24/4/1
f 26/4/1 22/4/1 21/4/1
f 27/4/1 22/4/1 26/4/1
f 29/2/1 24/2/1 23/2/1
f 30/2/1 24/2/1 29/2/1
f 33/2/1 28/2/1 27/2/1
f 34/2/1 28/2/1 33/2/1
f 35/4/1 31/4/1 30/4/1
f 36/4/1 31/4/1 35/4/1
f 37/4/1 33/4/1 32/4/1
f 38/4/1 33/4/1 37/4/1
f 39/2/1 37/2/1 36/2/1
f 40/2/1 37/2/1 39/2/1
f 44/1/1 42/1/1 41/1/1
f 45/1/1 42/1/1 44/1/1
f 48/4/1 44/4/1 43/4/1
f 49/4/1 44/4/1 48/4/1
f 50/4/1 46/4/1 45/4/1
f 51/4/1 46/4/1 50/4/1
f 54/2/1 48/2/1 47/2/1
f 55/2/1 48/2/1 54/2/1
f 56/2/1 52/2/1 51/2/1
f 57/2/1 52/2/1 56/2/1
f 59/1/1 54/1/1 53/1/1
f 60/1/1 54/1/1 59/1/1
f 63/1/1 58/1/1 57/1/1
f 64/1/1 58/1/1 63/1/1
f 65/2/1 61/2/1 60/2/1
f 66/2/1 61/2/1 65/2/1
f 69/2/1 63/2/1 62/2/1
f 70/2/1 63/2/1 69/2/1
f 71/2/1 67/2/1 66/2/1
f 72/2/1 67/2/1 71/2/1
f 73/2/1 69/2/1 68/2/1
f 74/2/1 69/2/1 73/2/1
f 75/1/1 73/1/1 72/1/1
f 76/1/1 73/1/1 75/1/1
f 77/1/2 78/1/2 80/1/2
f 80/1/2 78/1/2 81/1/2
f 79/4/2 80/4/2 84/4/2
f 84/4/2 80/4/2 85/4/2
f 81/4/2 82/4/2 86/4/2
f 86/4/2 82/4/2 87/4/2
f 83/2/2 84/2/2 90/2/2
f 90/2/2 84/2/2 91/2/2
f 87/2/2 88/2/2 92/2/2
f 92/2/2 88/2/2 93/2/2
f 89/1/2 90/1/2 95/1/2
f 95/1/2 90/1/2 96/1/2
f 93/1/2 94/1/2 99/1/2
f 99/1/2 94/1/2 100/1/2
f 96/2/2 97/2/2 101/2/2
f 101/2/2 97/2/2 102/2/2
f 98/2/2 99/2/2 105/2/2
f 105/2/2 99/2/2 106/2/2
f 102/2/2 103/2/2 107/2/2
f 107/2/2 103/2/2 108/2/2
f 104/2/2 105/2/2 109/2/2
f 109/2/2 105/2/2 110/2/2
f 108/1/2 109/1/2 111/1/2
f 111/1/2 109/1/2 112/1/2
f 113/2/2 114/2/2 116/2/2
f 116/2/2 114/2/2 117/2/2
f 115/4/2 116/4/2 120/4/2
f 120/4/2 116/4/2 121/4/2
f 117/4/2 118/4/2 122/4/2
f 122/4/2 118/4/2 123/4/2
f 119/2/2 120/2/2 125/2/2
f 125/2/2 120/2/2 126/2/2
f 123/2/2 124/2/2 129/2/2
f 129/2/2 124/2/2 130/2/2
f 126/4/2 127/4/2 131/4/2
f 131/4/2 127/4/2 132/4/2
f 128/4/2 129/4/2 133/4/2
f 133/4/2 129/4/2 134/4/2
f 132/2/2 133/2/2 135/2/2
f 135/2/2 133/2/2 136/2/2
f 137/2/2 138/2/2 140/2/2
f 140/2/2 138/2/2 141/2/2
f 139/2/2 140/2/2 143/2/2
f 143/2/2 140/2/2 144/2/2
f 141/2/2 142/2/2 145/2/2
f 145/2/2 142/2/2 146/2/2
f 144/2/2 145/2/2 147/2/2
f 147/2/2 145/2/2 148/2/2
f 149/1/2 150/1/2 151/1/2
f 151/1/2 150/1/2 152/1/2
f 155/1/3 154/1/3 153/1/3
f 156/1/3 154/1/3 155/1/3
f 160/2/3 158/2/3 157/2/3
f 161/2/3 158/2/3 160/2/3
f 163/2/3 160/2/3 159/2/3
f 164/2/3 160/2/3 163/2/3
f 165/2/3 162/2/3 161/2/3
f 166/2/3 162/2/3 165/2/3
f 167/2/3 165/2/3 164/2/3
f 168/2/3 165/2/3 167/2/3
f 172/3/3 170/3/3 169/3/3
f 173/3/3 170/3/3 172/3/3
f 176/4/3 172/4/3 171/4/3
f 177/4/3 172/4/3 176/4/3
f 178/4/3 174/4/3 173/4/3
f 179/4/3 174/4/3 178/4/3
f 181/4/3 176/4/3 175/4/3
f 182/4/3 176/4/3 181/4/3
f 185/2/3 180/2/3 179/2/3
f 186/2/3 180/2/3 185/2/3
f 187/4/3 183/4/3 182/4/3
f 188/4/3 183/4/3 187/4/3
f 189/4/3 185/4/3 184/4/3
f 190/4/3 185/4/3 189/4/3
f 191/2/3 189/2/3 188/2/3
f 192/2/3 189/2/3 191/2/3
f 196/6/3 194/6/3 193/6/3
f 197/6/3 194/6/3 196/6/3
f 200/5/3 196/5/3 195/5/3
f 201/5/3 196/5/3 200/5/3
f 202/5/3 198/5/3 197/5/3
f 203/5/3 198/5/3 202/5/3
f 206/2/3 200/2/3 199/2/3
f 207/2/3 200/2/3 206/2/3
f 208/2/3 204/2/3 203/2/3
f 209/2/3 204/2/3 208/2/3
f 211/1/3 206/1/3 205/1/3
f 212/1/3 206/1/3 211/1/3
f 215/1/3 210/1/3 209/1/3
f 216/1/3 210/1/3 215/1/3
f 217/2/3 213/2/3 212/2/3
f 218/2/3 213/2/3 217/2/3
f 221/2/3 215/2/3 214/2/3
f 222/2/3 215/2/3 221/2/3
f 223/2/3 219/2/3 218/2/3
f 224/2/3 219/2/3 223/2/3
f 225/2/3 221/2/3 220/2/3
f 226/2/3 221/2/3 225/2/3
f 227/1/3 225/1/3 224/1/3
f 228/1/3 225/1/3 227/1/3
f 229/6/4 230/6/4 232/6/4
f 232/6/4 230/6/4 233/6/4
f 231/5/4 232/5/4 236/5/4
f 236/5/4 232/5/4 237/5/4
f 233/5/4 234/5/4 238/5/4
f 238/5/4 234/5/4 239/5/4
f 235/2/4 236/2/4 242/2/4
f 242/2/4 236/2/4 243/2/4
f 239/2/4 240/2/4 244/2/4
f 244/2/4 240/2/4 245/2/4
f 241/1/4 242/1/4 247/1/4
f 247/1/4 242/1/4 248/1/4
f 245/1/4 246/1/4 251/1/4
f 251/1/4 246/1/4 252/1/4
f 248/2/4 249/2/4 253/2/4
f 253/2/4 249/2/4 254/2/4
f 250/2/4 251/2/4 257/2/4
f 257/2/4 251/2/4 258/2/4
f 254/2/4 255/2/4 259/2/4
f 259/2/4 255/2/4 260/2/4
f 256/2/4 257/2/4 261/2/4
f 261/2/4 257/2/4 262/2/4
f 260/1/4 261/1/4 263/1/4
f 263/1/4 261/1/4 264/1/4
f 265/3/4 266/3/4 268/3/4
f 268/3/4 266/3/4 269/3/4
f 267/4/4 268/4/4 272/4/4
f 272/4/4 268/4/4 273/4/4
f 269/4/4 270/4/4 274/4/4
f 274/4/4 270/4/4 275/4/4
f 271/4/4 272/4/4 277/4/4
f 277/4/4 272/4/4 278/4/4
f 275/2/4 276/2/4 281/2/4
f 281/2/4 276/2/4 282/2/4
f 278/4/4 279/4/4 283/4/4
f 283/4/4 279/4/4 284/4/4
f 280/4/4 281/4/4 285/4/4
f 285/4/4 281/4/4 286/4/4
f 284/2/4 285/2/4 287/2/4
f 287/2/4 285/2/4 288/2/4
f 289/2/4 290/2/4 292/2/4
f 292/2/4 290/2/4 293/2/4
f 291/2/4 292/2/4 295/2/4
f 295/2/4 292/2/4 296/2/4
f 293/2/4 294/2/4 297/2/4
f 297/2/4 294/2/4 298/2/4
f 296/2/4 297/2/4 299/2/4
f 299/2/4 297/2/4 300/2/4
f 301/1/4 302/1/4 303/1/4
f 303/1/4 302/1/4 304/1/4
f 307/1/5 306/1/5 305/1/5
f 308/1/5 306/1/5 307/1/5
f 312/4/5 310/4/5 309/4/5
f 313/4/5 310/4/5 312/4/5
f 315/2/5 312/2/5 311/2/5
f 316/2/5 312/2/5 315/2/5
f 317/2/5 314/2/5 313/2/5
f 318/2/5 314/2/5 317/2/5
f 319/4/5 317/4/5 316/4/5
f 320/4/5 317/4/5 319/4/5
f 324/2/5 322/2/5 321/2/5
f 325/2/5 322/2/5 324/2/5
f 328/4/5 324/4/5 323/4/5
f 329/4/5 324/4/5 328/4/5
f 330/4/5 326/4/5 325/4/5
f 331/4/5 326/4/5 330/4/5
f 333/5/5 328/5/5 327/5/5
f 334/5/5 328/5/5 333/5/5
f 337/2/5 332/2/5 331/2/5
f 338/2/5 332/2/5 337/2/5
f 339/4/5 335/4/5 334/4/5
f 340/4/5 335/4/5 339/4/5
f 341/4/5 337/4/5 336/4/5
f 342/4/5 337/4/5 341/4/5
f 343/2/5 341/2/5 340/2/5
f 344/2/5 341/2/5 343/2/5
f 348/1/5 346/1/5 345/1/5
f 349/1/5 346/1/5 348/1/5
f 352/2/5 348/2/5 347/2/5
f 353/2/5 348/2/5 352/2/5
f 354/2/5 350/2/5 349/2/5
f 355/2/5 350/2/5 354/2/5
f 358/3/5 352/3/5 351/3/5
f 359/3/5 352/3/5 358/3/5
f 360/2/5 356/2/5 355/2/5
f 361/2/5 356/2/5 360/2/5
f 363/6/5 358/6/5 357/6/5
f 364/6/5 358/6/5 363/6/5
f 367/1/5 362/1/5 361/1/5
f 368/1/5 362/1/5 367/1/5
f 369/3/5 365/3/5 364/3/5
f 370/3/5 365/3/5 369/3/5
f 373/2/5 367/2/5 366/2/5
f 374/2/5 367/2/5 373/2/5
f 375/2/5 371/2/5 370/2/5
f 376/2/5 371/2/5 375/2/5
f 377/2/5 373/2/5 372/2/5
f 378/2/5 373/2/5 377/2/5
f 379/1/5 377/1/5 376/1/5
f 380/1/5 377/1/5 379/1/5
f 381/1/6 382/1/6 384/1/6
f 384/1/6 382/1/6 385/1/6
f 383/2/6 384/2/6 388/2/6
f 388/2/6 384/2/6 389/2/6
f 385/2/6 386/2/6 390/2/6
f 390/2/6 386/2/6 391/2/6
f 387/3/6 388/3/6 394/3/6
f 394/3/6 388/3/6 395/3/6
f 391/2/6 392/2/6 396/2/6
f 396/2/6 392/2/6 397/2/6
f 393/6/6 394/6/6 399/6/6
f 399/6/6 394/6/6 400/6/6
f 397/1/6 398/1/6 403/1/6
f 403/1/6 398/1/6 404/1/6
f 400/3/6 401/3/6 405/3/6
f 405/3/6 401/3/6 406/3/6
f 402/2/6 403/2/6 409/2/6
f 409/2/6 403/2/6 410/2/6
f 406/2/6 407/2/6 411/2/6
f 411/2/6 407/2/6 412/2/6
f 408/2/6 409/2/6 413/2/6
f 413/2/6 409/2/6 414/2/6
f 412/1/6 413/1/6 415/1/6
f 415/1/6 413/1/6 416/1/6
f 417/2/6 418/2/6 420/2/6
f 420/2/6 418/2/6 421/2/6
f 419/4/6 420/4/6 424/4/6
f 424/4/6 420/4/6 425/4/6
f 421/4/6 422/4/6 426/4/6
f 426/4/6 422/4/6 427/4/6
f 423/5/6 424/5/6 429/5/6
f 429/5/6 424/5/6 430/5/6
f 427/2/6 428/2/6 433/2/6
f 433/2/6 428/2/6 434/2/6
f 430/4/6 431/4/6 435/4/6
f 435/4/6 431/4/6 436/4/6
f 432/4/6 433/4/6 437/4/6
f 437/4/6 433/4/6 438/4/6
f 436/2/6 437/2/6 439/2/6
f 439/2/6 437/2/6 440/2/6
f 441/2/6 442/2/6 444/2/6
f 444/2/6 442/2/6 445/2/6
f 443/2/6 444/2/6 447/2/6
f 447/2/6 444/2/6 448/2/6
f 445/2/6 446/2/6 449/2/6
f 449/2/6 446/2/6 450/2/6
f 448/2/6 449/2/6 451/2/6
f 451/2/6 449/2/6 452/2/6
f 453/1/6 454/1/6 455/1/6
f 455/1/6 454/1/6 456/1/6
